<?xml version="1.0" encoding="UTF-8"?>
<svg id="Layer_1" data-name="Layer 1" xmlns="http://www.w3.org/2000/svg" viewBox="0 0 1056.58 747.89">
  <defs>
    <style>
      .cls-1 {
        fill: #0059fb;
      }
    </style>
  </defs>
  <path class="cls-1" d="M808.98,461.38l211.73-244.38h-107.7c-29.46,0-57.66,11.96-78.14,33.14l-142.81,147.7V0h-85.26v373.95h-27.08v61.12l59.3-.08h48.82c3.79,0,6.87,3.08,6.87,6.87v61.48c0,3.61-2.98,6.51-6.59,6.42l-56.87-1.45v60.66c.01,4.95-4,8.96-8.95,8.96h-102.46c-5.13,0-9.29-4.16-9.29-9.29v-60.35l-87.01.88c-14.26,74.35-76.45,119.7-147.56,119.7-82.17,0-147.48-62.15-147.48-152.74s65.31-151.68,147.48-151.68c68.21,0,128.21,43.22,145.57,110.85l142.82-.2v-61.14h-24.37V0h-62.42c-23.5,0-42.55,19.05-42.55,42.55v245.02c-30.54-53.72-115.87-83.22-170.64-83.22C112.71,204.35,0,297.05,0,476.12s114.81,271.77,267.55,271.77c63.2,0,127.46-21.07,167.48-83.22l10.95,83.22h98.02l20.36-91.29h15.34l.26,91.29h112.34l-.26-214.65,182.66,186.99c17.27,17.68,40.95,27.65,65.67,27.65h116.19l-247.6-286.52Z"/>
</svg>