<?xml version="1.0" encoding="UTF-8"?>
<svg id="Layer_1" data-name="Layer 1" xmlns="http://www.w3.org/2000/svg" viewBox="0 0 1154.57 813.97">
  <defs>
    <style>
      .cls-1 {
        fill: #0059fb;
      }
    </style>
  </defs>
  <g>
    <path class="cls-1" d="M203.43,611.43c.98,57.61-34.18,115.87-113.92,115.87H0v-227.84h89.51c78.12,0,112.94,55.66,113.92,111.96ZM42.64,685.97h46.87c51.75,0,72.26-37.76,71.28-74.86-.98-35.48-21.81-70.96-71.28-70.96h-46.87v145.82Z"/>
    <path class="cls-1" d="M359.33,566.84h38.08v160.46h-37.43l-1.95-23.43c-9.11,18.88-34.17,27.99-52.08,28.32-47.52.33-82.67-28.97-82.67-85.28s36.78-84.3,83.65-83.97c21.48,0,41.99,10.09,51.1,26.04l1.3-22.13ZM262.99,646.91c0,30.6,21.16,48.82,47.52,48.82,62.49,0,62.49-97.32,0-97.32-26.37,0-47.52,17.9-47.52,48.5Z"/>
    <path class="cls-1" d="M480.09,521.6v45.57h44.27v34.18h-44.59v69.33c0,15.3,8.47,22.78,20.83,22.78,6.18,0,13.35-1.95,19.21-4.88l11.07,33.85c-11.39,4.56-20.83,6.51-32.87,6.83-34.83,1.3-57.61-18.55-57.61-58.59v-69.33h-29.95v-34.18h29.95v-41.34l39.71-4.23Z"/>
    <path class="cls-1" d="M681.24,566.84h38.08v160.46h-37.43l-1.95-23.43c-9.12,18.88-34.18,27.99-52.08,28.32-47.52.33-82.67-28.97-82.67-85.28s36.78-84.3,83.65-83.97c21.48,0,41.99,10.09,51.1,26.04l1.3-22.13ZM584.89,646.91c0,30.6,21.16,48.82,47.52,48.82,62.49,0,62.49-97.32,0-97.32-26.37,0-47.52,17.9-47.52,48.5Z"/>
    <path class="cls-1" d="M791.57,499.79v131.5l54.03-64.45h47.52v2.28l-65.42,73.23,74.54,82.02v2.93h-47.85l-62.82-72.58v72.58h-39.71v-227.51h39.71Z"/>
    <path class="cls-1" d="M959.85,499.79v227.51h-39.38v-227.51h39.38Z"/>
    <path class="cls-1" d="M1028.53,661.23c2.6,19.86,19.85,34.18,47.84,34.18,14.65,0,33.85-5.53,42.97-14.97l25.39,25.07c-16.92,17.57-44.59,26.04-69,26.04-55.33,0-88.21-34.17-88.21-85.6s33.2-83.97,85.28-83.97,87.23,33.2,81.05,99.27h-125.31ZM1115.76,628.36c-2.6-20.83-18.88-31.25-41.66-31.25-21.48,0-39.06,10.42-44.92,31.25h86.58Z"/>
  </g>
  <path class="cls-1" d="M736.21,260.9l119.73-138.19h-60.9c-16.66,0-32.61,6.76-44.19,18.74l-80.76,83.52V0h-48.21v211.46h-15.31v34.56l33.53-.05h27.61c2.15,0,3.89,1.74,3.89,3.89v34.77c0,2.04-1.68,3.68-3.72,3.63l-32.16-.82v34.3c0,2.8-2.26,5.07-5.06,5.07h-57.94c-2.9,0-5.25-2.35-5.25-5.25v-34.13l-49.2.5c-8.06,42.04-43.23,67.69-83.44,67.69-46.46,0-83.39-35.14-83.39-86.37s36.93-85.77,83.39-85.77c38.57,0,72.5,24.44,82.32,62.68l80.76-.11v-34.57h-13.78V0h-35.29c-13.29,0-24.06,10.77-24.06,24.06v138.55c-17.27-30.38-65.52-47.06-96.49-47.06-85.77,0-149.51,52.42-149.51,153.68s64.92,153.68,151.29,153.68c35.74,0,72.07-11.91,94.71-47.06l6.19,47.06h55.43l11.52-51.62h8.68l.15,51.62h63.53l-.15-121.38,103.29,105.74c9.77,10,23.16,15.64,37.13,15.64h65.7l-140.01-162.02Z"/>
  <g>
    <path class="cls-1" d="M233.94,805.75h-2.74l-10.46-24.64h2.7l9.12,21.93,8.98-21.93h2.74l-10.35,24.64Z"/>
    <path class="cls-1" d="M262.2,797.05c0,5.37-3.79,8.91-8.91,8.91s-8.91-3.54-8.91-8.91,3.72-9.02,8.91-9.02,8.91,3.65,8.91,9.02ZM246.73,797.05c0,4.04,2.74,6.7,6.56,6.7s6.56-2.67,6.56-6.7-2.7-6.88-6.56-6.88-6.56,2.88-6.56,6.88Z"/>
    <path class="cls-1" d="M277.86,791.89c-1.61-1.47-3.26-1.75-5.12-1.75-2.53-.04-4.77.88-4.7,2.81.04,2.04,2.56,2.53,4.74,2.84,3.12.46,7.16.98,7.16,5.19-.07,3.65-3.62,5.05-7.12,5.05-2.98,0-5.93-.98-7.69-3.37l1.47-1.61c1.47,2,4.04,2.77,6.25,2.81,1.96,0,4.74-.56,4.74-2.91s-2.25-2.7-5.02-3.09c-3.33-.49-6.81-1.26-6.84-4.84,0-3.54,3.58-5.05,6.98-5.02,2.6,0,4.74.7,6.53,2.35l-1.37,1.54Z"/>
    <path class="cls-1" d="M310.05,781.12v24.57h-2.28l-.07-3.47c-1.4,2.49-4.07,3.79-6.81,3.79-4.91,0-8.74-3.23-8.74-8.98s3.83-8.98,8.74-8.98c2.7,0,5.51,1.19,6.81,3.76v-10.67h2.35ZM294.51,797.02c0,4.35,2.91,6.74,6.53,6.74s6.56-2.74,6.56-6.77-2.88-6.7-6.56-6.7-6.53,2.32-6.53,6.74Z"/>
    <path class="cls-1" d="M332.24,797.05c0,5.37-3.79,8.91-8.91,8.91s-8.91-3.54-8.91-8.91,3.72-9.02,8.91-9.02,8.91,3.65,8.91,9.02ZM316.77,797.05c0,4.04,2.74,6.7,6.56,6.7s6.56-2.67,6.56-6.7-2.7-6.88-6.56-6.88-6.56,2.88-6.56,6.88Z"/>
    <path class="cls-1" d="M350.29,805.68v-9.72c0-3.72-2.18-5.69-5.65-5.69-3.37.04-5.68,2.63-5.68,5.97v9.44h-2.35v-17.34h2.25l.07,2.91c1.44-2.21,3.68-3.19,6.04-3.19,4.49,0,7.72,2.67,7.72,7.86v9.76h-2.39Z"/>
    <path class="cls-1" d="M371.63,805.68v-9.72c0-3.72-2.18-5.69-5.65-5.69-3.37.04-5.68,2.63-5.68,5.97v9.44h-2.35v-17.34h2.25l.07,2.91c1.44-2.21,3.69-3.19,6.04-3.19,4.49,0,7.72,2.67,7.72,7.86v9.76h-2.39Z"/>
    <path class="cls-1" d="M395.68,798h-15.09c.32,3.61,3.12,5.75,6.56,5.75,2.11,0,4.63-.84,5.86-2.39l1.58,1.4c-1.72,2.14-4.7,3.23-7.44,3.23-5.16,0-8.98-3.47-8.98-9.02,0-5.19,3.72-8.95,8.88-8.95s9.3,3.12,8.63,9.97ZM380.59,796h12.88c-.07-3.79-2.91-5.86-6.39-5.86s-6.04,2.11-6.49,5.86ZM391.3,781.12h-2.81l-2.63,4.35v.14h2.14l3.3-4.42v-.07Z"/>
    <path class="cls-1" d="M401.16,798c.32,3.61,3.12,5.75,6.56,5.75,2.11,0,4.63-.84,5.86-2.39l1.58,1.4c-1.72,2.14-4.7,3.23-7.44,3.23-5.16,0-8.98-3.47-8.98-9.02,0-5.19,3.72-8.95,8.88-8.95s9.3,3.12,8.63,9.97h-15.09ZM414.04,796c-.07-3.79-2.91-5.86-6.39-5.86s-6.04,2.11-6.49,5.86h12.88Z"/>
    <path class="cls-1" d="M431.74,791.89c-1.61-1.47-3.26-1.75-5.12-1.75-2.53-.04-4.77.88-4.7,2.81.04,2.04,2.56,2.53,4.74,2.84,3.12.46,7.16.98,7.16,5.19-.07,3.65-3.62,5.05-7.12,5.05-2.98,0-5.93-.98-7.69-3.37l1.47-1.61c1.47,2,4.04,2.77,6.25,2.81,1.96,0,4.74-.56,4.74-2.91s-2.25-2.7-5.02-3.09c-3.33-.49-6.81-1.26-6.84-4.84,0-3.54,3.58-5.05,6.98-5.02,2.6,0,4.74.7,6.53,2.35l-1.37,1.54Z"/>
    <path class="cls-1" d="M439.47,808.88h-1.75l.98-3.05c-.6-.18-1.05-.63-1.05-1.4,0-2.04,3.33-2.18,3.33.03,0,.88-.77,2.28-1.51,4.42Z"/>
    <path class="cls-1" d="M457.9,781.12v24.57h-2.35v-24.57h2.35Z"/>
    <path class="cls-1" d="M478.19,788.35h2.21v17.34h-2.18v-3.44c-1.51,2.56-4.28,3.79-6.88,3.79-4.91,0-8.84-3.51-8.84-9.02s3.97-8.91,8.88-8.91c2.67,0,5.51,1.23,6.81,3.68v-3.44ZM464.85,797.02c0,4.11,2.95,6.81,6.6,6.81,8.95,0,8.95-13.58,0-13.58-3.65,0-6.6,2.7-6.6,6.77Z"/>
    <path class="cls-1" d="M509.4,803.37c-1.82,1.79-4.11,2.63-6.46,2.63-4.95,0-9.02-3.3-9.02-8.98s3.97-8.95,9.02-8.95c2.32,0,4.35.81,6.18,2.56l-1.54,1.51c-1.33-1.26-2.91-1.86-4.6-1.86-3.69,0-6.7,2.49-6.7,6.74s3.05,6.74,6.67,6.74c1.75,0,3.51-.67,4.84-1.96l1.61,1.58Z"/>
    <path class="cls-1" d="M515.76,781.12v24.57h-2.35v-24.57h2.35Z"/>
    <path class="cls-1" d="M537.87,798h-15.09c.32,3.61,3.12,5.75,6.56,5.75,2.11,0,4.63-.84,5.86-2.39l1.58,1.4c-1.72,2.14-4.7,3.23-7.44,3.23-5.16,0-8.98-3.47-8.98-9.02,0-5.19,3.72-8.95,8.88-8.95s9.3,3.12,8.63,9.97ZM522.78,796h12.88c-.07-3.79-2.91-5.86-6.39-5.86s-6.04,2.11-6.49,5.86ZM533.48,781.12h-2.81l-2.63,4.35v.14h2.14l3.3-4.42v-.07Z"/>
    <path class="cls-1" d="M568.03,781.12v24.57h-2.28l-.07-3.47c-1.4,2.49-4.07,3.79-6.81,3.79-4.91,0-8.74-3.23-8.74-8.98s3.83-8.98,8.74-8.98c2.7,0,5.51,1.19,6.81,3.76v-10.67h2.35ZM552.48,797.02c0,4.35,2.91,6.74,6.53,6.74s6.56-2.74,6.56-6.77-2.88-6.7-6.56-6.7-6.53,2.32-6.53,6.74Z"/>
    <path class="cls-1" d="M574.81,798c.32,3.61,3.12,5.75,6.56,5.75,2.11,0,4.63-.84,5.86-2.39l1.58,1.4c-1.72,2.14-4.7,3.23-7.44,3.23-5.16,0-8.98-3.47-8.98-9.02,0-5.19,3.72-8.95,8.88-8.95s9.3,3.12,8.63,9.97h-15.09ZM587.69,796c-.07-3.79-2.91-5.86-6.39-5.86s-6.04,2.11-6.49,5.86h12.88Z"/>
    <path class="cls-1" d="M617.88,788.35l-7.3,17.37h-2.6l-7.3-17.37h2.6l6,14.77,6-14.77h2.6Z"/>
    <path class="cls-1" d="M637.65,797.05c0,5.37-3.79,8.91-8.91,8.91s-8.91-3.54-8.91-8.91,3.72-9.02,8.91-9.02,8.91,3.65,8.91,9.02ZM622.17,797.05c0,4.04,2.74,6.7,6.56,6.7s6.56-2.67,6.56-6.7-2.7-6.88-6.56-6.88-6.56,2.88-6.56,6.88Z"/>
    <path class="cls-1" d="M645.94,783.22v5.16h5.61v2h-5.61v9.79c0,2.18.6,3.61,2.95,3.61.81,0,1.68-.28,2.53-.67l.74,1.96c-1.12.53-2.21.84-3.33.84-3.72.04-5.23-2.14-5.23-5.75v-9.79h-3.54v-2h3.54v-4.91l2.35-.25Z"/>
    <path class="cls-1" d="M657.52,788.35l.14,2.84c1.12-2.32,3.44-3.12,5.51-3.12,1.58,0,2.67.35,3.93,1.23l-1.09,1.96c-.88-.6-1.86-.91-2.98-.91-2.98.03-5.37,2.32-5.37,5.47v9.86h-2.35v-17.34h2.21Z"/>
    <path class="cls-1" d="M670.65,798c.32,3.61,3.12,5.75,6.56,5.75,2.11,0,4.63-.84,5.86-2.39l1.58,1.4c-1.72,2.14-4.7,3.23-7.44,3.23-5.16,0-8.98-3.47-8.98-9.02,0-5.19,3.72-8.95,8.88-8.95s9.3,3.12,8.63,9.97h-15.09ZM683.53,796c-.07-3.79-2.91-5.86-6.39-5.86s-6.04,2.11-6.49,5.86h12.88Z"/>
    <path class="cls-1" d="M699.09,813.97v-25.62h2.28l.07,3.68c1.33-2.46,4-3.97,7.02-3.97,4.88.14,8.53,3.51,8.53,8.95s-3.72,9.02-8.77,9.02c-2.67,0-5.4-1.23-6.81-3.86v11.79h-2.32ZM714.64,797.02c0-4.32-2.81-6.67-6.53-6.67s-6.49,2.84-6.49,6.7,2.77,6.7,6.49,6.7,6.53-2.39,6.53-6.74Z"/>
    <path class="cls-1" d="M722.68,798c.32,3.61,3.12,5.75,6.56,5.75,2.11,0,4.63-.84,5.86-2.39l1.58,1.4c-1.72,2.14-4.7,3.23-7.44,3.23-5.16,0-8.98-3.47-8.98-9.02,0-5.19,3.72-8.95,8.88-8.95s9.3,3.12,8.63,9.97h-15.09ZM735.56,796c-.07-3.79-2.91-5.86-6.39-5.86s-6.04,2.11-6.49,5.86h12.88Z"/>
    <path class="cls-1" d="M744.17,788.35l.14,2.84c1.12-2.32,3.44-3.12,5.51-3.12,1.58,0,2.67.35,3.93,1.23l-1.09,1.96c-.88-.6-1.86-.91-2.98-.91-2.98.03-5.37,2.32-5.37,5.47v9.86h-2.35v-17.34h2.21Z"/>
    <path class="cls-1" d="M758.53,805.68v-15.13h-3.44v-2.03h3.44v-1.44c0-3.75,1.82-6.14,5.54-6.14,1.37,0,2.63.46,3.72,1.23l-1.02,1.75c-.95-.56-1.65-.88-2.67-.88-2,0-3.23,1.23-3.23,4.04v1.44h5.54v2.03h-5.54v15.13h-2.35Z"/>
    <path class="cls-1" d="M785.87,797.05c0,5.37-3.79,8.91-8.91,8.91s-8.91-3.54-8.91-8.91,3.72-9.02,8.91-9.02,8.91,3.65,8.91,9.02ZM770.4,797.05c0,4.04,2.74,6.7,6.56,6.7s6.56-2.67,6.56-6.7-2.7-6.88-6.56-6.88-6.56,2.88-6.56,6.88Z"/>
    <path class="cls-1" d="M792.44,788.35l.14,2.84c1.12-2.32,3.44-3.12,5.51-3.12,1.58,0,2.67.35,3.93,1.23l-1.09,1.96c-.88-.6-1.86-.91-2.98-.91-2.98.03-5.37,2.32-5.37,5.47v9.86h-2.35v-17.34h2.21Z"/>
    <path class="cls-1" d="M817.44,805.68v-10.04c0-3.05-2.03-5.4-5.09-5.4s-5.09,2.35-5.09,5.4v10.04h-2.35v-17.34h2.21l.11,2.7c1.12-2.17,3.26-3.02,5.37-3.02,2.49,0,5.09,1.09,6.11,4,1.16-2.74,3.68-4,6.25-4,4.42,0,7.3,2.98,7.3,7.55v10.11h-2.35v-10.11c0-3.09-1.93-5.33-4.98-5.33s-5.12,2.35-5.12,5.4v10.04h-2.35Z"/>
    <path class="cls-1" d="M852.09,788.35h2.21v17.34h-2.18v-3.44c-1.51,2.56-4.28,3.79-6.88,3.79-4.91,0-8.84-3.51-8.84-9.02s3.97-8.91,8.88-8.91c2.67,0,5.51,1.23,6.81,3.68v-3.44ZM838.75,797.02c0,4.11,2.95,6.81,6.6,6.81,8.95,0,8.95-13.58,0-13.58-3.65,0-6.6,2.7-6.6,6.77Z"/>
    <path class="cls-1" d="M873.47,805.68v-9.72c0-3.72-2.18-5.69-5.65-5.69-3.37.04-5.68,2.63-5.68,5.97v9.44h-2.35v-17.34h2.25l.07,2.91c1.44-2.21,3.68-3.19,6.04-3.19,4.49,0,7.72,2.67,7.72,7.86v9.76h-2.39Z"/>
    <path class="cls-1" d="M895.48,803.37c-1.82,1.79-4.11,2.63-6.46,2.63-4.95,0-9.02-3.3-9.02-8.98s3.97-8.95,9.02-8.95c2.32,0,4.35.81,6.18,2.56l-1.54,1.51c-1.33-1.26-2.91-1.86-4.6-1.86-3.68,0-6.7,2.49-6.7,6.74s3.05,6.74,6.67,6.74c1.75,0,3.51-.67,4.84-1.96l1.61,1.58Z"/>
    <path class="cls-1" d="M900.12,798c.32,3.61,3.12,5.75,6.56,5.75,2.11,0,4.63-.84,5.86-2.39l1.58,1.4c-1.72,2.14-4.7,3.23-7.44,3.23-5.16,0-8.98-3.47-8.98-9.02,0-5.19,3.72-8.95,8.88-8.95s9.3,3.12,8.63,9.97h-15.09ZM913,796c-.07-3.79-2.91-5.86-6.39-5.86s-6.04,2.11-6.49,5.86h12.88Z"/>
    <path class="cls-1" d="M932.07,804.14c0,2.28-3.47,2.28-3.47,0s3.47-2.32,3.47,0ZM931.5,781.12v19.2h-2.49v-19.2h2.49Z"/>
  </g>
</svg>