<?xml version="1.0" encoding="UTF-8"?>
<svg id="Layer_1" data-name="Layer 1" xmlns="http://www.w3.org/2000/svg" viewBox="0 0 1770.09 437.24">
  <defs>
    <style>
      .cls-1 {
        fill: #0059fb;
      }
    </style>
  </defs>
  <g>
    <path class="cls-1" d="M874.57,249.57c.92,54.24-32.18,109.1-107.26,109.1h-84.27v-214.52h84.27c73.55,0,106.34,52.4,107.26,105.42ZM723.18,319.75h44.13c48.73,0,68.03-35.55,67.11-70.48-.92-33.4-20.53-66.81-67.11-66.81h-44.13v137.29Z"/>
    <path class="cls-1" d="M1021.36,207.59h35.85v151.08h-35.24l-1.84-22.06c-8.58,17.77-32.18,26.35-49.03,26.66-44.74.31-77.84-27.27-77.84-80.29s34.63-79.37,78.76-79.06c20.23,0,39.53,9.5,48.11,24.52l1.23-20.84ZM930.65,282.98c0,28.81,19.92,45.97,44.74,45.97,58.84,0,58.84-91.63,0-91.63-24.82,0-44.74,16.86-44.74,45.66Z"/>
    <path class="cls-1" d="M1135.05,164.99v42.9h41.68v32.18h-41.99v65.27c0,14.4,7.97,21.45,19.61,21.45,5.82,0,12.57-1.84,18.08-4.6l10.42,31.87c-10.72,4.29-19.61,6.13-30.95,6.43-32.79,1.23-54.24-17.47-54.24-55.16v-65.27h-28.2v-32.18h28.2v-38.92l37.39-3.98Z"/>
    <path class="cls-1" d="M1324.44,207.59h35.86v151.08h-35.24l-1.84-22.06c-8.58,17.77-32.18,26.35-49.03,26.66-44.74.31-77.84-27.27-77.84-80.29s34.63-79.37,78.76-79.06c20.22,0,39.53,9.5,48.11,24.52l1.22-20.84ZM1233.73,282.98c0,28.81,19.92,45.97,44.74,45.97,58.84,0,58.84-91.63,0-91.63-24.82,0-44.74,16.86-44.74,45.66Z"/>
    <path class="cls-1" d="M1428.32,144.46v123.81l50.87-60.68h44.74v2.14l-61.6,68.95,70.18,77.23v2.76h-45.05l-59.14-68.34v68.34h-37.39v-214.21h37.39Z"/>
    <path class="cls-1" d="M1586.76,144.46v214.21h-37.08v-214.21h37.08Z"/>
    <path class="cls-1" d="M1651.42,296.46c2.45,18.69,18.69,32.18,45.05,32.18,13.79,0,31.87-5.21,40.45-14.1l23.9,23.6c-15.94,16.55-41.98,24.51-64.97,24.51-52.1,0-83.05-32.18-83.05-80.6s31.26-79.06,80.29-79.06,82.13,31.26,76.31,93.47h-117.98ZM1733.55,265.51c-2.45-19.61-17.77-29.42-39.23-29.42-20.22,0-36.77,9.81-42.29,29.42h81.51Z"/>
  </g>
  <path class="cls-1" d="M467.79,266.79l122.43-141.31h-62.27c-17.04,0-33.34,6.92-45.19,19.16l-82.58,85.41V0h-49.3v216.23h-15.66v35.34l34.29-.05h28.23c2.19,0,3.97,1.78,3.97,3.97v35.55c0,2.09-1.72,3.77-3.81,3.71l-32.89-.84v35.08c0,2.86-2.31,5.18-5.17,5.18h-59.25c-2.97,0-5.37-2.4-5.37-5.37v-34.9l-50.31.51c-8.24,42.99-44.2,69.22-85.32,69.22-47.51,0-85.28-35.94-85.28-88.32s37.76-87.71,85.28-87.71c39.44,0,74.14,24.99,84.18,64.1l82.58-.11v-35.35h-14.09V0h-36.09c-13.59,0-24.6,11.02-24.6,24.6v141.68c-17.66-31.06-67-48.12-98.67-48.12C65.17,118.17,0,171.77,0,275.32s66.39,157.15,154.71,157.15c36.55,0,73.7-12.18,96.85-48.12l6.33,48.12h56.68l11.78-52.79h8.87l.15,52.79h64.96l-.15-124.12,105.62,108.13c9.99,10.23,23.68,15.99,37.97,15.99h67.19l-143.17-165.68Z"/>
  <g>
    <path class="cls-1" d="M762.65,426.14h-3.7l-14.14-33.31h3.65l12.34,29.65,12.15-29.65h3.7l-14,33.31Z"/>
    <path class="cls-1" d="M800.84,414.37c0,7.26-5.12,12.05-12.05,12.05s-12.05-4.79-12.05-12.05,5.03-12.19,12.05-12.19,12.05,4.93,12.05,12.19ZM779.92,414.37c0,5.46,3.7,9.06,8.87,9.06s8.87-3.61,8.87-9.06-3.65-9.3-8.87-9.3-8.87,3.89-8.87,9.3Z"/>
    <path class="cls-1" d="M822,407.4c-2.18-1.99-4.41-2.37-6.93-2.37-3.42-.05-6.45,1.19-6.36,3.8.05,2.75,3.46,3.42,6.4,3.84,4.22.62,9.68,1.33,9.68,7.02-.09,4.94-4.89,6.83-9.63,6.83-4.03,0-8.02-1.33-10.39-4.55l1.99-2.18c1.99,2.7,5.46,3.75,8.45,3.79,2.66,0,6.4-.76,6.4-3.94s-3.04-3.65-6.78-4.18c-4.51-.66-9.2-1.71-9.25-6.55,0-4.79,4.84-6.83,9.44-6.78,3.51,0,6.41.95,8.83,3.18l-1.85,2.09Z"/>
    <path class="cls-1" d="M865.5,392.83v33.21h-3.08l-.1-4.7c-1.9,3.37-5.5,5.13-9.2,5.13-6.64,0-11.81-4.37-11.81-12.15s5.17-12.15,11.81-12.15c3.65,0,7.45,1.61,9.2,5.08v-14.42h3.18ZM844.48,414.32c0,5.88,3.94,9.11,8.83,9.11s8.87-3.7,8.87-9.16-3.89-9.06-8.87-9.06-8.83,3.13-8.83,9.11Z"/>
    <path class="cls-1" d="M895.48,414.37c0,7.26-5.13,12.05-12.05,12.05s-12.05-4.79-12.05-12.05,5.03-12.19,12.05-12.19,12.05,4.93,12.05,12.19ZM874.56,414.37c0,5.46,3.7,9.06,8.87,9.06s8.87-3.61,8.87-9.06-3.65-9.3-8.87-9.3-8.87,3.89-8.87,9.3Z"/>
    <path class="cls-1" d="M919.86,426.04v-13.14c0-5.03-2.94-7.69-7.64-7.69-4.55.05-7.69,3.56-7.69,8.06v12.76h-3.18v-23.44h3.04l.1,3.94c1.94-2.99,4.98-4.32,8.16-4.32,6.07,0,10.44,3.61,10.44,10.63v13.19h-3.23Z"/>
    <path class="cls-1" d="M948.7,426.04v-13.14c0-5.03-2.94-7.69-7.64-7.69-4.55.05-7.69,3.56-7.69,8.06v12.76h-3.18v-23.44h3.04l.1,3.94c1.94-2.99,4.98-4.32,8.16-4.32,6.07,0,10.44,3.61,10.44,10.63v13.19h-3.23Z"/>
    <path class="cls-1" d="M981.2,415.65h-20.4c.43,4.89,4.22,7.78,8.87,7.78,2.85,0,6.26-1.14,7.92-3.23l2.14,1.9c-2.33,2.89-6.36,4.37-10.06,4.37-6.97,0-12.15-4.7-12.15-12.19,0-7.02,5.03-12.1,12-12.1s12.57,4.22,11.67,13.47ZM960.8,412.95h17.41c-.1-5.12-3.94-7.92-8.64-7.92s-8.16,2.85-8.78,7.92ZM975.27,392.83h-3.79l-3.56,5.88v.19h2.89l4.46-5.98v-.1Z"/>
    <path class="cls-1" d="M988.6,415.65c.43,4.89,4.22,7.78,8.87,7.78,2.85,0,6.26-1.14,7.92-3.23l2.14,1.9c-2.33,2.89-6.36,4.37-10.06,4.37-6.97,0-12.15-4.7-12.15-12.19,0-7.02,5.03-12.1,12-12.1s12.57,4.22,11.67,13.47h-20.4ZM1006.01,412.95c-.1-5.12-3.94-7.92-8.64-7.92s-8.16,2.85-8.78,7.92h17.41Z"/>
    <path class="cls-1" d="M1029.92,407.4c-2.18-1.99-4.41-2.37-6.93-2.37-3.42-.05-6.45,1.19-6.36,3.8.05,2.75,3.46,3.42,6.41,3.84,4.22.62,9.68,1.33,9.68,7.02-.09,4.94-4.89,6.83-9.63,6.83-4.03,0-8.02-1.33-10.39-4.55l1.99-2.18c1.99,2.7,5.46,3.75,8.45,3.79,2.66,0,6.41-.76,6.41-3.94s-3.04-3.65-6.78-4.18c-4.51-.66-9.21-1.71-9.25-6.55,0-4.79,4.84-6.83,9.44-6.78,3.51,0,6.41.95,8.82,3.18l-1.85,2.09Z"/>
    <path class="cls-1" d="M1040.35,430.36h-2.37l1.33-4.13c-.81-.24-1.42-.85-1.42-1.9,0-2.75,4.51-2.94,4.51.05,0,1.19-1.04,3.08-2.04,5.98Z"/>
    <path class="cls-1" d="M1065.26,392.83v33.21h-3.18v-33.21h3.18Z"/>
    <path class="cls-1" d="M1092.68,402.6h2.99v23.44h-2.94v-4.65c-2.04,3.46-5.79,5.13-9.3,5.13-6.64,0-11.96-4.74-11.96-12.19s5.36-12.05,12-12.05c3.61,0,7.45,1.66,9.21,4.98v-4.65ZM1074.65,414.32c0,5.55,3.98,9.2,8.92,9.2,12.1,0,12.1-18.36,0-18.36-4.94,0-8.92,3.65-8.92,9.16Z"/>
    <path class="cls-1" d="M1134.85,422.91c-2.47,2.42-5.55,3.56-8.73,3.56-6.69,0-12.19-4.46-12.19-12.15s5.36-12.1,12.19-12.1c3.13,0,5.88,1.09,8.35,3.46l-2.09,2.04c-1.8-1.71-3.94-2.51-6.21-2.51-4.98,0-9.06,3.37-9.06,9.11s4.13,9.11,9.01,9.11c2.37,0,4.74-.9,6.55-2.66l2.18,2.13Z"/>
    <path class="cls-1" d="M1143.43,392.83v33.21h-3.18v-33.21h3.18Z"/>
    <path class="cls-1" d="M1173.32,415.65h-20.4c.43,4.89,4.22,7.78,8.87,7.78,2.85,0,6.26-1.14,7.92-3.23l2.14,1.9c-2.33,2.89-6.36,4.37-10.06,4.37-6.97,0-12.15-4.7-12.15-12.19,0-7.02,5.03-12.1,12-12.1s12.57,4.22,11.67,13.47ZM1152.92,412.95h17.41c-.1-5.12-3.94-7.92-8.64-7.92s-8.16,2.85-8.78,7.92ZM1167.39,392.83h-3.79l-3.56,5.88v.19h2.89l4.46-5.98v-.1Z"/>
    <path class="cls-1" d="M1214.07,392.83v33.21h-3.09l-.09-4.7c-1.9,3.37-5.5,5.13-9.21,5.13-6.64,0-11.81-4.37-11.81-12.15s5.17-12.15,11.81-12.15c3.65,0,7.45,1.61,9.21,5.08v-14.42h3.18ZM1193.05,414.32c0,5.88,3.94,9.11,8.82,9.11s8.87-3.7,8.87-9.16-3.89-9.06-8.87-9.06-8.82,3.13-8.82,9.11Z"/>
    <path class="cls-1" d="M1223.22,415.65c.43,4.89,4.22,7.78,8.87,7.78,2.85,0,6.26-1.14,7.92-3.23l2.14,1.9c-2.33,2.89-6.36,4.37-10.06,4.37-6.97,0-12.15-4.7-12.15-12.19,0-7.02,5.03-12.1,12-12.1s12.57,4.22,11.67,13.47h-20.4ZM1240.64,412.95c-.1-5.12-3.94-7.92-8.64-7.92s-8.16,2.85-8.78,7.92h17.41Z"/>
    <path class="cls-1" d="M1281.43,402.6l-9.87,23.49h-3.51l-9.87-23.49h3.51l8.11,19.97,8.11-19.97h3.51Z"/>
    <path class="cls-1" d="M1308.14,414.37c0,7.26-5.13,12.05-12.05,12.05s-12.05-4.79-12.05-12.05,5.03-12.19,12.05-12.19,12.05,4.93,12.05,12.19ZM1287.22,414.37c0,5.46,3.7,9.06,8.87,9.06s8.87-3.61,8.87-9.06-3.65-9.3-8.87-9.3-8.87,3.89-8.87,9.3Z"/>
    <path class="cls-1" d="M1319.33,395.68v6.97h7.59v2.7h-7.59v13.24c0,2.94.81,4.89,3.99,4.89,1.09,0,2.28-.38,3.42-.9l1,2.66c-1.52.71-2.99,1.14-4.51,1.14-5.03.05-7.07-2.89-7.07-7.78v-13.24h-4.79v-2.7h4.79v-6.64l3.18-.33Z"/>
    <path class="cls-1" d="M1334.99,402.6l.19,3.84c1.52-3.13,4.65-4.22,7.45-4.22,2.14,0,3.61.47,5.31,1.66l-1.47,2.66c-1.19-.81-2.51-1.23-4.03-1.23-4.03.05-7.26,3.13-7.26,7.4v13.33h-3.18v-23.44h2.99Z"/>
    <path class="cls-1" d="M1352.73,415.65c.43,4.89,4.22,7.78,8.87,7.78,2.85,0,6.26-1.14,7.92-3.23l2.14,1.9c-2.33,2.89-6.36,4.37-10.06,4.37-6.97,0-12.15-4.7-12.15-12.19,0-7.02,5.03-12.1,12-12.1s12.57,4.22,11.67,13.47h-20.4ZM1370.14,412.95c-.1-5.12-3.94-7.92-8.64-7.92s-8.16,2.85-8.78,7.92h17.41Z"/>
    <path class="cls-1" d="M1391.15,437.24v-34.63h3.08l.1,4.98c1.8-3.32,5.41-5.36,9.49-5.36,6.59.19,11.53,4.74,11.53,12.1s-5.03,12.19-11.86,12.19c-3.61,0-7.31-1.66-9.2-5.22v15.94h-3.13ZM1412.17,414.32c0-5.84-3.8-9.02-8.83-9.02s-8.78,3.84-8.78,9.06,3.75,9.06,8.78,9.06,8.83-3.23,8.83-9.11Z"/>
    <path class="cls-1" d="M1423.03,415.65c.43,4.89,4.22,7.78,8.87,7.78,2.85,0,6.26-1.14,7.92-3.23l2.14,1.9c-2.33,2.89-6.36,4.37-10.06,4.37-6.97,0-12.15-4.7-12.15-12.19,0-7.02,5.03-12.1,12-12.1s12.57,4.22,11.67,13.47h-20.4ZM1440.44,412.95c-.1-5.12-3.94-7.92-8.64-7.92s-8.16,2.85-8.78,7.92h17.41Z"/>
    <path class="cls-1" d="M1452.06,402.6l.19,3.84c1.52-3.13,4.65-4.22,7.45-4.22,2.14,0,3.61.47,5.31,1.66l-1.47,2.66c-1.19-.81-2.51-1.23-4.03-1.23-4.03.05-7.26,3.13-7.26,7.4v13.33h-3.18v-23.44h2.99Z"/>
    <path class="cls-1" d="M1471.47,426.04v-20.45h-4.65v-2.75h4.65v-1.94c0-5.08,2.47-8.3,7.5-8.3,1.85,0,3.56.62,5.03,1.66l-1.38,2.37c-1.28-.76-2.23-1.19-3.61-1.19-2.7,0-4.37,1.66-4.37,5.46v1.94h7.5v2.75h-7.5v20.45h-3.18Z"/>
    <path class="cls-1" d="M1508.42,414.37c0,7.26-5.13,12.05-12.05,12.05s-12.05-4.79-12.05-12.05,5.03-12.19,12.05-12.19,12.05,4.93,12.05,12.19ZM1487.5,414.37c0,5.46,3.7,9.06,8.87,9.06s8.87-3.61,8.87-9.06-3.65-9.3-8.87-9.3-8.87,3.89-8.87,9.3Z"/>
    <path class="cls-1" d="M1517.29,402.6l.19,3.84c1.52-3.13,4.65-4.22,7.45-4.22,2.14,0,3.61.47,5.31,1.66l-1.47,2.66c-1.19-.81-2.51-1.23-4.03-1.23-4.03.05-7.26,3.13-7.26,7.4v13.33h-3.18v-23.44h2.99Z"/>
    <path class="cls-1" d="M1551.07,426.04v-13.57c0-4.13-2.75-7.31-6.88-7.31s-6.88,3.18-6.88,7.31v13.57h-3.18v-23.44h2.99l.14,3.65c1.52-2.94,4.41-4.08,7.26-4.08,3.37,0,6.88,1.47,8.25,5.41,1.57-3.7,4.98-5.41,8.45-5.41,5.98,0,9.87,4.03,9.87,10.2v13.66h-3.18v-13.66c0-4.18-2.61-7.21-6.74-7.21s-6.93,3.18-6.93,7.31v13.57h-3.18Z"/>
    <path class="cls-1" d="M1597.89,402.6h2.99v23.44h-2.94v-4.65c-2.04,3.46-5.79,5.13-9.3,5.13-6.64,0-11.96-4.74-11.96-12.19s5.36-12.05,12-12.05c3.61,0,7.45,1.66,9.21,4.98v-4.65ZM1579.86,414.32c0,5.55,3.98,9.2,8.92,9.2,12.1,0,12.1-18.36,0-18.36-4.94,0-8.92,3.65-8.92,9.16Z"/>
    <path class="cls-1" d="M1626.78,426.04v-13.14c0-5.03-2.94-7.69-7.64-7.69-4.55.05-7.69,3.56-7.69,8.06v12.76h-3.18v-23.44h3.04l.1,3.94c1.94-2.99,4.98-4.32,8.16-4.32,6.07,0,10.44,3.61,10.44,10.63v13.19h-3.23Z"/>
    <path class="cls-1" d="M1656.52,422.91c-2.47,2.42-5.55,3.56-8.73,3.56-6.69,0-12.19-4.46-12.19-12.15s5.36-12.1,12.19-12.1c3.13,0,5.88,1.09,8.35,3.46l-2.09,2.04c-1.8-1.71-3.94-2.51-6.21-2.51-4.98,0-9.06,3.37-9.06,9.11s4.13,9.11,9.01,9.11c2.37,0,4.74-.9,6.55-2.66l2.18,2.13Z"/>
    <path class="cls-1" d="M1662.78,415.65c.43,4.89,4.22,7.78,8.87,7.78,2.85,0,6.26-1.14,7.92-3.23l2.14,1.9c-2.33,2.89-6.36,4.37-10.06,4.37-6.97,0-12.15-4.7-12.15-12.19,0-7.02,5.03-12.1,12-12.1s12.57,4.22,11.67,13.47h-20.4ZM1680.2,412.95c-.1-5.12-3.94-7.92-8.64-7.92s-8.16,2.85-8.78,7.92h17.41Z"/>
    <path class="cls-1" d="M1705.95,423.96c0,3.08-4.7,3.08-4.7,0s4.7-3.13,4.7,0ZM1705.19,392.83v25.95h-3.37v-25.95h3.37Z"/>
  </g>
</svg>